<svg width="200" height="200" xmlns="http://www.w3.org/2000/svg">

 <g>
  <title>Layer 1</title>
  <rect stroke-width="0" rx="28" id="svg_2" height="200" width="200" y="0" x="0" stroke="#000" fill="#042a2b"/>
  <path d="m50,49.5c1,0 2.87856,-0.49346 6,-1c8.88379,-1.44164 14.95332,-1.49903 23,-2c4.99034,-0.31069 15,0 17,0c11,0 15.03893,0.2117 23,1c5.0742,0.50245 13.02582,2.67963 15,3c6.24289,1.01308 8.186,1.69255 10,3c1.14726,0.8269 4,5 4,7c0,1 -1.10341,3.90633 -2,5c-2.28587,2.78832 -4.23401,4.49294 -9,7c-3.19099,1.67856 -12.00445,2.24953 -19,2c-14.02675,-0.50032 -20.0874,-1.39826 -29,-3c-4.05809,-0.7293 -12.00749,-1.87782 -13,-2c-4.09222,-0.50378 -6,-1 -9,-2l-1,0" id="svg_6" stroke-width="0" stroke="#000" fill="none"/>
  <path id="svg_22" d="m37.24703,57.37159c41.99909,-0.99998 82.49821,-8.49982 124.99729,-2.49995" opacity="NaN" stroke-width="11" stroke="#62929e" fill="none"/>
  <path id="svg_23" d="m45.49685,67.62137c14.99967,55.74879 0.99998,86.99811 4.24991,92.498c3.24993,5.49988 106.00203,4.50423 105.24988,-4.62274c-0.75215,-9.12696 -12.0019,-55.87595 -6.24986,-90.99803" opacity="NaN" stroke-width="11" stroke="#62929e" fill="none"/>
  <path id="svg_24" d="m76.49618,74.62122c1.99996,17.74962 2.99993,56.49878 0.74998,68.24852" opacity="NaN" stroke-width="11" stroke="#62929e" fill="none"/>
  <path id="svg_25" d="m115.74533,72.62126c-2.24995,16.99963 -1.24997,65.24859 0.49999,69.74849" opacity="NaN" stroke-width="11" stroke="#62929e" fill="none"/>
  <path id="svg_26" d="m78.24614,50.12175c0.49999,-17.49962 42.24908,-16.99963 39.49914,-1.74996" opacity="NaN" stroke-width="11" stroke="#62929e" fill="none"/>
 </g>
</svg>